# xmcd CD database file
# Generated: Fri Feb 7 13:33:28 2003 by KSCD
# 
# Track frame offsets:
#       150
#       19030
#       33527
#       55807
#       77455
#       95085
#       116142
#       132197
#       146425
#       168980
#       186375
#       201097
#       221927
#       239395
#       258270
#       274627
#       290027
#       307700
#
# Disc length: 4310 seconds
#
# Revision: 3
# Processed by: cddbd v1.4PL0 Copyright (c) Steve Scherf et al.
# Submitted via: Kscd 1.3.3
#
DISCID=0810d412
DTITLE=Els Pets - Mala cara
DYEAR=1900
DGENRE=
TTITLE0=Tarragona m'esborrona
TTITLE1=Mala cara
TTITLE2=La vida és bonica (però complicada)
TTITLE3=S'ha acabat
TTITLE4=Vespre (nova versió)
TTITLE5=Bon dia
TTITLE6=Por
TTITLE7=Hospital de mar
TTITLE8=Pantalons curts i els genolls pelats
TTITLE9=Sebastià
TTITLE10=Jo vull ser rei
TTITLE11=Aquest cony de temps
TTITLE12=Menja avellanes
TTITLE13=Una estona de cel
TTITLE14=Estúpidament feliç
TTITLE15=Tantes coses a fer
TTITLE16=Bona nit
TTITLE17=Tarragona m'esborrona (An Der Beat remix)
EXTD=
EXTT0=
EXTT1=
EXTT2=
EXTT3=
EXTT4=
EXTT5=
EXTT6=
EXTT7=
EXTT8=
EXTT9=
EXTT10=
EXTT11=
EXTT12=
EXTT13=
EXTT14=
EXTT15=
EXTT16=
EXTT17=
PLAYORDER=
